<?xml version="1.0" encoding="UTF-8" standalone="no"?>
<!-- Created with Inkscape (http://www.inkscape.org/) -->

<svg
   version="1.1"
   id="svg1"
   width="1600"
   height="1600"
   viewBox="0 0 1600 1600"
   sodipodi:docname="oneflake.svg"
   inkscape:version="1.4.2 (f4327f4, 2025-05-13)"
   xmlns:inkscape="http://www.inkscape.org/namespaces/inkscape"
   xmlns:sodipodi="http://sodipodi.sourceforge.net/DTD/sodipodi-0.dtd"
   xmlns="http://www.w3.org/2000/svg"
   xmlns:svg="http://www.w3.org/2000/svg">
  <defs
     id="defs1" />
  <sodipodi:namedview
     id="namedview1"
     pagecolor="#ffffff"
     bordercolor="#000000"
     borderopacity="0.25"
     inkscape:showpageshadow="2"
     inkscape:pageopacity="0.0"
     inkscape:pagecheckerboard="0"
     inkscape:deskcolor="#d1d1d1"
     inkscape:zoom="0.5"
     inkscape:cx="537"
     inkscape:cy="815"
     inkscape:window-width="1852"
     inkscape:window-height="1057"
     inkscape:window-x="-8"
     inkscape:window-y="-8"
     inkscape:window-maximized="1"
     inkscape:current-layer="g1"
     showgrid="false">
    <inkscape:page
       x="0"
       y="0"
       inkscape:label="1"
       id="page1"
       width="1600"
       height="1600"
       margin="0"
       bleed="0" />
  </sodipodi:namedview>
  <g
     id="g1"
     inkscape:groupmode="layer"
     inkscape:label="1">
    <g
       inkscape:groupmode="layer"
       id="layer1"
       inkscape:label="Snow1" />
    <path
       id="path41"
       d="m 131.19865,149.01337 19.372,11.17333 v 22.37333 l -19.372,-11.18666 z m -15.6,-9.01333 -19.373336,11.18666 -20.126666,-11.62666 19.373333,-11.18667 z m 5.2,-9.01334 -19.37334,-11.17333 V 97.440036 l 19.37334,11.186664 z m 15.6,9.01334 19.372,-11.18667 20.12666,11.62667 -19.372,11.17333 z m 14.172,-20.18667 -19.372,11.17333 v -23.24 l 19.372,-11.17333 z m -49.14534,40.37333 19.37334,-11.17333 v 23.22666 l -19.37334,11.18667 z m 137.38133,7.04 c -0.83066,0 -1.62533,0.2 -2.368,0.58667 l -27.48933,14.06666 -13.388,-7.72 41.51333,-21.26666 c 1.236,-0.62667 2.152,-1.70667 2.57867,-3.02667 0.42667,-1.32 0.312,-2.73333 -0.32,-3.97333 -0.896,-1.74667 -2.66933,-2.82667 -4.632,-2.82667 -0.81733,0 -1.636,0.2 -2.36667,0.57334 l -47.49866,24.31999 -17.912,-10.33333 21.97333,-12.69333 c 1.60267,-0.92 2.6,-2.64 2.6,-4.49333 0,-1.85334 -0.99733,-3.58667 -2.6,-4.50667 l -22.72666,-13.12 18.66533,-10.77333 47.49866,24.32 c 0.74,0.38666 1.53734,0.57333 2.36667,0.57333 1.96267,0 3.736,-1.08 4.632,-2.82667 0.632,-1.24 0.74667,-2.65333 0.32,-3.97333 -0.42667,-1.32 -1.34267,-2.4 -2.57867,-3.02667 l -41.51333,-21.26666 13.388,-7.733337 27.48933,14.079997 c 0.74134,0.38667 1.536,0.57334 2.36534,0.57334 1.96266,0 3.73866,-1.08 4.63333,-2.82667 0.63333,-1.24 0.74667,-2.64 0.32133,-3.96 -0.42533,-1.32 -1.34266,-2.4 -2.57866,-3.04 l -21.50667,-11.013334 19.776,-11.413333 c 1.204,-0.693333 2.06267,-1.813333 2.424,-3.16 0.35867,-1.346666 0.17333,-2.746666 -0.52,-3.946666 -0.92667,-1.6 -2.65333,-2.6 -4.508,-2.6 -0.90667,0 -1.80533,0.24 -2.596,0.693333 l -19.776,11.426667 1.21467,-24.133333 c 0.068,-1.386667 -0.40667,-2.72 -1.33867,-3.76 -0.93067,-1.026667 -2.20667,-1.626667 -3.59333,-1.706667 -2.88534,-0.16 -5.312,2.08 -5.456,4.933334 l -1.552,30.853332 -13.38667,7.733333 2.34133,-46.586665 c 0.0693,-1.386667 -0.40533,-2.72 -1.33733,-3.746667 -0.93066,-1.04 -2.208,-1.64 -3.592,-1.706666 -2.84533,-0.173334 -5.31466,2.053333 -5.45733,4.933333 l -2.68,53.293329 -18.66533,10.77334 V 87.560037 c 0,-1.853334 -0.99734,-3.573334 -2.6,-4.506667 -1.57867,-0.906667 -3.62267,-0.906667 -5.2,0 l -21.972,12.693333 v -20.68 l 44.81733,-28.973332 c 1.16667,-0.76 1.968,-1.92 2.26,-3.28 0.292,-1.36 0.0373,-2.746667 -0.71733,-3.906667 -0.96134,-1.493333 -2.596,-2.386666 -4.37067,-2.386666 -1,0 -1.976,0.293333 -2.82,0.84 L 131.19865,62.680037 V 47.213371 l 25.94,-16.76 c 1.168,-0.76 1.96933,-1.92 2.26133,-3.28 0.292,-1.36 0.0373,-2.746666 -0.71733,-3.906666 -0.96267,-1.493334 -2.59734,-2.386667 -4.372,-2.386667 -1,0 -1.97467,0.293334 -2.81867,0.84 l -20.29333,13.12 v -22.84 c 0,-2.8666662 -2.33334,-5.1999995 -5.2,-5.1999995 -2.868,0 -5.2,2.3333333 -5.2,5.1999995 v 22.84 l -20.29467,-13.12 c -0.843999,-0.546666 -1.818666,-0.84 -2.818666,-0.84 -1.776,0 -3.409333,0.893333 -4.370667,2.386667 -0.753333,1.16 -1.007999,2.546666 -0.717333,3.906666 0.292,1.36 1.096,2.52 2.261333,3.28 l 25.940003,16.76 V 62.680037 L 81.626648,37.360038 c -0.844,-0.546667 -1.818667,-0.84 -2.818667,-0.84 -1.774666,0 -3.409333,0.893333 -4.372,2.386666 -0.753333,1.16 -1.008,2.546667 -0.716,3.906667 0.292,1.36 1.094667,2.52 2.261334,3.28 L 120.79865,75.066703 V 96.61337 l -21.973336,-12.68 c -1.58,-0.92 -3.621333,-0.92 -5.2,0 -1.604,0.92 -2.6,2.653333 -2.6,4.493333 v 25.373337 l -18.665333,-10.77334 -2.68,-53.293329 c -0.144,-2.866667 -2.596,-5.106667 -5.454666,-4.933333 -1.386667,0.06667 -2.664,0.666666 -3.596,1.706666 -0.930667,1.026667 -1.406667,2.36 -1.336,3.746667 L 61.634648,96.840036 48.247982,89.106703 46.697315,58.253371 c -0.138666,-2.76 -2.406666,-4.933334 -5.161333,-4.933334 -0.09867,0 -0.197333,0 -0.293333,0 -1.386667,0.08 -2.664,0.68 -3.596,1.706667 -0.930667,1.04 -1.406667,2.373333 -1.336,3.76 L 37.523982,82.920037 17.746649,71.49337 c -0.789333,-0.453333 -1.688,-0.693333 -2.594666,-0.693333 -1.853334,0 -3.581333,1 -4.508,2.6 -1.4333334,2.48 -0.58,5.666666 1.902667,7.106666 L 32.323982,91.920036 10.817316,102.93337 c -2.5519997,1.30667 -3.565333,4.45333 -2.2586664,7 0.8946666,1.74667 2.6693334,2.82667 4.6319994,2.82667 0.829334,0 1.626667,-0.18667 2.366667,-0.57334 L 43.047982,98.106703 56.434648,105.84004 14.921316,127.1067 c -1.236,0.62667 -2.152,1.70667 -2.577333,3.02667 -0.426667,1.32 -0.313333,2.73333 0.32,3.97333 0.893333,1.74667 2.669333,2.82667 4.632,2.82667 0.829333,0 1.625333,-0.18667 2.366666,-0.57333 l 47.497332,-24.33334 17.912,10.34667 -21.973333,12.69333 c -1.604,0.92 -2.6,2.64 -2.6,4.49334 0,1.85333 0.996,3.58666 2.6,4.50666 l 22.726666,13.12 -18.665333,10.77333 -47.497332,-24.31999 c -0.741333,-0.38667 -1.537333,-0.57334 -2.366666,-0.57334 -1.962667,0 -3.738667,1.08 -4.632,2.82667 -0.633333,1.24 -0.746667,2.65333 -0.32,3.97333 0.425333,1.32 1.341333,2.4 2.577333,3.02667 l 41.513332,21.26666 -13.386666,7.72 -27.490666,-14.06666 c -0.741333,-0.38667 -1.537333,-0.58667 -2.366667,-0.58667 -1.961333,0 -3.7373328,1.09333 -4.6319994,2.84 -1.3066666,2.54667 -0.2933333,5.69333 2.2586664,7 l 21.506666,11.01333 -19.777332,11.41334 c -2.482667,1.44 -3.3360004,4.62666 -1.902667,7.10666 0.925333,1.6 2.653333,2.6 4.508,2.6 0.906666,0 1.804,-0.24 2.594666,-0.69333 l 19.777333,-11.42667 -1.213333,24.14 c -0.07067,1.38667 0.405333,2.71734 1.336,3.748 0.932,1.03067 2.209333,1.636 3.593333,1.70534 0.09067,0.005 0.178667,0.007 0.268,0.007 2.770667,0 5.049333,-2.16933 5.189333,-4.93866 l 1.550667,-30.848 13.386666,-7.73334 -2.341333,46.588 c -0.07067,1.38667 0.405333,2.71867 1.336,3.74934 0.932,1.02933 2.209333,1.636 3.593333,1.70533 0.09067,0.005 0.178667,0.007 0.268,0.007 2.770667,0 5.049333,-2.16934 5.189333,-4.93867 l 2.68,-53.29733 18.665333,-10.77334 v 26.24 c 0,1.85334 0.996,3.57334 2.6,4.50667 0.789333,0.45333 1.688,0.69333 2.6,0.69333 0.913333,0 1.812,-0.24 2.6,-0.69333 l 21.973336,-12.69333 v 20.68 L 75.981315,233.9087 c -1.166667,0.75334 -1.969334,1.91734 -2.261334,3.27467 -0.292,1.35867 -0.03733,2.748 0.716,3.91467 0.962667,1.488 2.597334,2.37733 4.372,2.37733 1,0 1.973333,-0.288 2.818667,-0.832 l 39.172002,-25.32 v 15.45733 l -25.940003,16.768 c -1.165333,0.75334 -1.969333,1.91734 -2.261333,3.27467 -0.290666,1.35867 -0.036,2.748 0.717333,3.91467 0.962667,1.48933 2.596,2.37866 4.370667,2.37866 1,-10e-4 1.974667,-0.28933 2.818666,-0.83333 l 20.29467,-13.11867 v 22.836 c 0,2.86667 2.332,5.2 5.2,5.2 2.86666,0 5.2,-2.33333 5.2,-5.2 v -22.836 l 20.29333,13.11867 c 0.84533,0.544 1.82,0.83333 2.81867,0.83333 1.77466,0 3.40933,-0.88933 4.372,-2.37866 0.75466,-1.16667 1.00933,-2.556 0.71733,-3.91467 -0.292,-1.35733 -1.09333,-2.52133 -2.26133,-3.27467 l -25.94,-16.768 v -15.458 l 39.16933,25.32 c 0.84533,0.54533 1.82133,0.83333 2.82,0.83333 1.77467,0 3.40933,-0.88933 4.37067,-2.37866 0.75466,-1.16667 1.00933,-2.556 0.71733,-3.91467 -0.292,-1.35733 -1.09333,-2.52133 -2.26,-3.27467 L 131.19865,204.93337 V 183.3867 l 21.972,12.68 c 1.57733,0.92 3.62133,0.92 5.2,0 1.60266,-0.92 2.6,-2.65333 2.6,-4.50667 v -25.36 l 18.66533,10.77334 2.68,53.29733 c 0.13867,2.76933 2.416,4.93867 5.188,4.93867 0.0893,0 0.18,-0.001 0.26667,-0.007 1.38666,-0.0693 2.664,-0.676 3.59466,-1.70533 0.932,-1.03067 1.40667,-2.36267 1.33733,-3.74934 l -2.34133,-46.588 13.38667,7.73334 1.552,30.84933 c 0.13866,2.768 2.41733,4.93733 5.18933,4.93733 0.088,0 0.17867,-0.001 0.26533,-0.007 1.388,-0.0693 2.664,-0.67467 3.59467,-1.70534 0.932,-1.03066 1.40667,-2.36133 1.33867,-3.74933 l -1.21467,-24.13867 19.776,11.42667 c 0.79067,0.45333 1.688,0.69333 2.596,0.69333 1.85467,0 3.58133,-1 4.508,-2.6 0.69333,-1.2 0.87867,-2.6 0.52,-3.94666 -0.36133,-1.34667 -1.22,-2.46667 -2.424,-3.16 l -19.776,-11.41334 21.50667,-11.01333 c 1.236,-0.64 2.15333,-1.72 2.57866,-3.04 0.42534,-1.32 0.312,-2.73333 -0.32133,-3.96 -0.89467,-1.74667 -2.66933,-2.84 -4.63067,-2.84"
       style="fill:#52afe6;fill-opacity:1;fill-rule:nonzero;stroke:none;stroke-width:0.133333" />
  </g>
</svg>
